<svg width="60.00000000000001" height="60.00000000000001" xmlns="http://www.w3.org/2000/svg">
 <title/>

 <g>
  <title>background</title>
  <rect fill="none" id="canvas_background" height="402" width="582" y="-1" x="-1"/>
 </g>
 <g>
  <title>Layer 1</title>
  <path id="Facebook" fill="#ffffff" d="m30,60c16.56854,0 30,-13.43146 30,-30c0,-16.56854 -13.43146,-30 -30,-30c-16.56854,0 -30,13.43146 -30,30c0,16.56854 13.43146,30 30,30z"/>
  <path id="svg_1" fill="#332b7e" d="m25.46222,47.31431l0,-17.31535l-3.51893,0l0,-5.7396l3.51893,0l0,-3.47097c0,-4.68175 1.39977,-8.05777 6.52588,-8.05777l6.09826,0l0,5.72782l-4.29411,0c-2.15036,0 -2.64038,1.42894 -2.64038,2.92532l0,2.8756l6.61755,0l-0.90325,5.7396l-5.7143,0l0,17.31535l-5.68965,0z"/>
 </g>
</svg>